<svg xmlns="http://www.w3.org/2000/svg" xmlns:xlink="http://www.w3.org/1999/xlink" width="168.688" height="89.261" viewBox="0 0 168.688 89.261">
  <defs>
    <clipPath id="clip-path">
      <rect id="Rectangle_1" data-name="Rectangle 1" width="168.462" height="89.261" fill="none"/>
    </clipPath>
  </defs>
  <g id="Group_231" data-name="Group 231" transform="translate(-866.744 -23.098)">
    <path id="Path_119" data-name="Path 119" d="M165.463,30.618c-2.682-5.277-6.829-9.794-12.688-13.783A69.19,69.19,0,0,0,135.091,8.47,118.2,118.2,0,0,0,116.3,4.111c-1.094-.158-2.188-.282-3.247-.423-1.606-.194-3.123-.388-4.606-.671-.617-.123-1.252-.246-1.87-.37-3.283-.653-6.688-1.341-10.147-1.73A157.271,157.271,0,0,0,79.732,0,143.6,143.6,0,0,0,42.3,4.941C31.855,7.764,23.278,11.506,16.078,16.464c-6.407,4.394-10.677,9-13.412,14.489a23.457,23.457,0,0,0-.724,20.206c2.012,4.8,5.224,8.983,10.112,13.183,5.629,4.8,12.141,8.506,21.812,12.424l.194.07.194.053c.83.229,1.889.6,2.983,1.024.459.176.918.335,1.411.512a5.357,5.357,0,0,0,3.477,4.57,6.953,6.953,0,0,0,2.4.459,5.549,5.549,0,0,0,2.171-.441,4.555,4.555,0,0,0,1.959-1.641c2.559.654,5.171,1.218,7.8,1.73A172.317,172.317,0,0,0,88.82,86.172c1.129,0,2.294-.018,3.441-.035.211,0,.441-.018.653-.018h.265c.388,0,.741-.017,1.059-.035,2.682-.088,5.311-.229,7.853-.423a5.009,5.009,0,0,0,1.852,2.612,5.172,5.172,0,0,0,3.107.989,6.237,6.237,0,0,0,2.453-.512,6.968,6.968,0,0,0,3.723-4.306,117.316,117.316,0,0,0,20.984-5.065c8.7-3.018,15.706-6.829,21.388-11.682,6.125-5.207,10.006-10.959,11.842-17.559a26.47,26.47,0,0,0-1.977-19.518" transform="translate(866.97 23.099)" fill="#072d5f"/>
    <g id="Group_230" data-name="Group 230" transform="translate(866.744 23.099)">
      <g id="Group_2" data-name="Group 2">
        <g id="Mask_Group_1" data-name="Mask Group 1" clip-path="url(#clip-path)">
          <path id="Path_1" data-name="Path 1" d="M165.463,30.618c-2.682-5.277-6.829-9.794-12.688-13.783A69.19,69.19,0,0,0,135.091,8.47,118.2,118.2,0,0,0,116.3,4.111c-1.094-.158-2.188-.282-3.247-.423-1.606-.194-3.123-.388-4.606-.671-.617-.123-1.252-.246-1.87-.37-3.283-.653-6.688-1.341-10.147-1.73A157.271,157.271,0,0,0,79.732,0,143.6,143.6,0,0,0,42.3,4.941C31.855,7.764,23.278,11.506,16.078,16.464c-6.407,4.394-10.677,9-13.412,14.489a23.457,23.457,0,0,0-.724,20.206c2.012,4.8,5.224,8.983,10.112,13.183,5.629,4.8,12.141,8.506,21.812,12.424l.194.07.194.053c.83.229,1.889.6,2.983,1.024.459.176.918.335,1.411.512a5.357,5.357,0,0,0,3.477,4.57,6.953,6.953,0,0,0,2.4.459,5.549,5.549,0,0,0,2.171-.441,4.555,4.555,0,0,0,1.959-1.641c2.559.654,5.171,1.218,7.8,1.73A172.317,172.317,0,0,0,88.82,86.172c1.129,0,2.294-.018,3.441-.035.211,0,.441-.018.653-.018h.265c.388,0,.741-.017,1.059-.035,2.682-.088,5.311-.229,7.853-.423a5.009,5.009,0,0,0,1.852,2.612,5.172,5.172,0,0,0,3.107.989,6.237,6.237,0,0,0,2.453-.512,6.968,6.968,0,0,0,3.723-4.306,117.316,117.316,0,0,0,20.984-5.065c8.7-3.018,15.706-6.829,21.388-11.682,6.125-5.207,10.006-10.959,11.842-17.559a26.47,26.47,0,0,0-1.977-19.518" transform="translate(0 0)" fill="#072d5f"/>
          <path id="Path_2" data-name="Path 2" d="M164.819,49.76c-1.818,6.547-5.735,11.612-10.765,15.9-5.983,5.1-12.918,8.489-20.312,11.065l-1.271.423c.512-.529,1.112-1.2,1.695-1.906v-.018c1.253-.423,2.506-.917,3.741-1.446,7.253-3.018,13.871-6.953,19.165-12.865a26.945,26.945,0,0,0,6.776-12.9c1.518-7.941-.988-14.754-6.388-20.683-4.676-5.171-10.536-8.576-16.836-11.295a92.3,92.3,0,0,0-16.977-5.259c-2.347-.512-4.711-.988-7.095-1.27a53.989,53.989,0,0,1,12.354,6.688,2.032,2.032,0,0,1-.088.229,1.324,1.324,0,0,1-.353-.106c-1.023-.6-2.029-1.2-3.053-1.817-1.836-1.077-3.741-2.03-5.647-2.948a36.179,36.179,0,0,0-7.447-2.682,56.735,56.735,0,0,0-7.518-.9C92.305,6.789,79.829,6.506,67.317,6.541a62.192,62.192,0,0,0-9.247.176c-11.7,1.8-22.977,4.977-33.424,10.571A46.015,46.015,0,0,0,10.192,28.742C7,32.73,4.9,37.2,4.968,42.524c.071,5.983,2.736,10.889,6.653,15.23,5.012,5.559,11.259,9.371,17.895,12.565a91.788,91.788,0,0,0,10.465,4.2l-.3,1.041c-1.464-.547-2.841-1.076-4.041-1.411C27.822,71.008,20.816,67.5,14.71,62.29A32.168,32.168,0,0,1,5.516,50.377,19.9,19.9,0,0,1,6.151,33.1c2.806-5.646,7.218-9.759,12.3-13.217C26.128,14.606,34.7,11.236,43.669,8.818A142.758,142.758,0,0,1,96.647,4.883c3.936.441,7.835,1.288,11.753,2.064,2.612.512,5.312.724,7.976,1.112a117.231,117.231,0,0,1,18.283,4.236,66.24,66.24,0,0,1,16.871,7.976,33.375,33.375,0,0,1,11.559,12.512,22.774,22.774,0,0,1,1.73,16.977" transform="translate(-0.556 -0.577)" fill="#1699da"/>
          <path id="Path_3" data-name="Path 3" d="M149.053,53.413c-1.888,0-3.512,1.359-3.37,4.5v.529c0,.088-.018.159-.018.247v.07a1.343,1.343,0,0,0-.035.265c-.018.088-.036.176-.053.264a4.885,4.885,0,0,1-.124.476.708.708,0,0,1-.07.176,5.208,5.208,0,0,1-1.376,2.083,5.14,5.14,0,0,1-.6.512c4.977-.335,8.453-2.894,8.453-6.124a2.73,2.73,0,0,0-2.806-3m-.282,6.459a5.158,5.158,0,0,0,.724-5.665c2.065,1.236,1.694,5.066-.724,5.665" transform="translate(-20.738 -7.724)" fill="#fff"/>
          <path id="Path_4" data-name="Path 4" d="M174.819,37.919a7.282,7.282,0,0,0-5.1,2.153l-.335.388a9.25,9.25,0,0,0-1.694,2.789,5.036,5.036,0,0,1,2.223-.724c2.365,0,2.754,4.218,5.877,4.218a3.92,3.92,0,0,0,3.9-4.094,4.783,4.783,0,0,0-4.871-4.73m.794,1.889A6.784,6.784,0,0,0,172.1,39.4a6.57,6.57,0,0,1,1.588-.547,5,5,0,0,1,1.112-.124,4.176,4.176,0,0,1,4.253,4.148c0,.123-.018.211-.018.317a6.712,6.712,0,0,0-3.423-3.388" transform="translate(-24.25 -5.484)" fill="#fff"/>
          <path id="Path_5" data-name="Path 5" d="M166.507,59.148c0,.247-.106.653-.458.653H155.335c-.37,0-.458-.405-.458-.653a2.228,2.228,0,0,1,.636-1.394c1.746-1.941,2.065-5.877,2.065-8.312,0-2.4-.319-6.018-2.065-7.923a1.88,1.88,0,0,1-.636-1.235.772.772,0,0,1,.583-.795,65.194,65.194,0,0,1,9.917-2.435.919.919,0,0,1,1.024.918,2.622,2.622,0,0,1-.529,1.235,10.721,10.721,0,0,0-1.429,4.341,24.06,24.06,0,0,0-.23,4.077c0,2.259.177,8.489,1.748,10.236a2.07,2.07,0,0,1,.547,1.288" transform="translate(-22.397 -5.358)" fill="#fff"/>
          <path id="Path_6" data-name="Path 6" d="M148.183,43.085c0-4.482-4.305-6.3-8.735-6.3-7.094,0-11.577,4.694-11.577,11.647a11.2,11.2,0,0,0,3.865,8.947,5.393,5.393,0,0,1,4.024-1.8,3.9,3.9,0,0,1,1.006.106,28.29,28.29,0,0,1-1.446-4.324c4.835-.053,12.864-2.1,12.864-8.277m-7.147,2.453h-.018a6.29,6.29,0,0,1-1.994.653,3.8,3.8,0,0,0-.724.141,3.948,3.948,0,0,0-1.023.424.057.057,0,0,0-.036.017.465.465,0,0,0-.158.088,5.018,5.018,0,0,0-1.748,1.783,3.052,3.052,0,0,0-.388.689c-.671-4.924,1.148-8.877,4.324-9.512a2.987,2.987,0,0,1,1.306-.036h.017a2.619,2.619,0,0,1,2.188,2.206,3.157,3.157,0,0,1-1.747,3.547" transform="translate(-18.492 -5.32)" fill="#fff"/>
          <path id="Path_7" data-name="Path 7" d="M116.758,51.917c-2.083.194-4.447,1.5-6.812,3.724a12.136,12.136,0,0,1-.246-2.523c0-1.906.37-3.9.37-6.971,0-1.042.035-5.118-2.789-5.118a7.43,7.43,0,0,0-3.777,1.588c-.141,2.205-.812,4.517-.812,7.306,0,1.994.353,5.788,2.118,7.747a2.261,2.261,0,0,1,.671,1.429c0,.247-.088.653-.441.653H94.31c-.352,0-.458-.405-.458-.724a1.956,1.956,0,0,1,.547-1.217c1.659-1.853,2.188-7.571,2.188-10.094,0-1.641-.212-6.953-2.736-6.953-1.253,0-3.036,1.324-4.394,2.206a32.186,32.186,0,0,0-.318,4.606c0,2.259.177,8.488,1.748,10.236a1.98,1.98,0,0,1,.547,1.288c0,.247-.088.653-.441.653H80.262c-.353,0-.441-.405-.441-.653a2.209,2.209,0,0,1,.618-1.394c1.748-1.941,2.065-5.877,2.065-8.312,0-2.4-.317-6.018-2.065-7.923a1.861,1.861,0,0,1-.618-1.236.76.76,0,0,1,.547-.794A77.078,77.078,0,0,1,90.41,37.005a.868.868,0,0,1,.935.918,1.939,1.939,0,0,1-.53,1.235,5.1,5.1,0,0,0-1.041,2.1c2.647-2.1,6.195-4.535,9.424-4.535,2.559,0,3.989,1.57,4.306,4.13,2.329-1.783,5.241-3.583,8.136-3.583,3.936,0,5.136,3.318,5.136,7.553a59.357,59.357,0,0,0-.018,7.095" transform="translate(-11.543 -5.311)" fill="#fff"/>
          <path id="Path_8" data-name="Path 8" d="M71.669,51.008c-1.871,0-3.494,1.359-3.353,4.5.035,1.059-.035,3.37-2.594,3.37-3.6,0-4.676-4.517-5.523-7.517,4.836-.053,12.865-2.1,12.865-8.277,0-4.482-4.289-6.3-8.735-6.3-7.095,0-11.595,4.694-11.595,11.647,0,7.535,5.4,11.718,12.265,11.718,5.524,0,9.512-2.682,9.512-6.142a2.738,2.738,0,0,0-2.841-3M64.151,39.82a2.747,2.747,0,0,1,3.512,2.171c.388,1.835-.654,3.688-3.759,4.2a4.324,4.324,0,0,0-.725.141,3.915,3.915,0,0,0-1.023.423c-.018,0-.035,0-.035.018a.456.456,0,0,0-.159.088,5,5,0,0,0-1.748,1.783,3.973,3.973,0,0,0-.387.688c-.671-4.924,1.146-8.876,4.323-9.512m7.236,17.648a5.193,5.193,0,0,0,.741-5.665c2.065,1.236,1.695,5.066-.741,5.665" transform="translate(-7.626 -5.32)" fill="#fff"/>
          <path id="Path_9" data-name="Path 9" d="M45.713,45.647C43.3,46.759,43.384,54.489,44.637,58c.494,1.323-.441,1.094-1.218.97a14.336,14.336,0,0,1-4.977-1.765,13.9,13.9,0,0,1-6.635,1.535c-8.295,0-14.683-5.93-14.683-15.495,0-9.424,6.283-16.2,14.806-16.2,7.236,0,12.124,4.818,12.124,8.453a2.746,2.746,0,0,1-2.877,2.965c-1.871,0-3.494-1.358-3.812-4.024-.353-3-2.506-6.106-5.559-6.106-4.271,0-7.5,6.159-7.5,14.347,0,7.8,2.877,14.789,8.047,14.789,3.493,0,4.711-3.283,5.065-5.312.141-2.789-.547-5.841-1.977-6.512-.847-.405-.812-1.853-.229-1.853H45.942c.583,0,.618,1.447-.229,1.853" transform="translate(-2.476 -3.911)" fill="#fff"/>
          <path id="Path_10" data-name="Path 10" d="M68.239,42.353a5.164,5.164,0,0,0-5.418,1.836c.124-2.488,3.795-3.6,5.418-1.836" transform="translate(-9.085 -6)" fill="#fff"/>
          <path id="Path_11" data-name="Path 11" d="M143.339,42.352a3.756,3.756,0,0,0-.441-.07,5.021,5.021,0,0,0-4.959,1.906c.106-2.259,3.141-3.389,4.907-2.259v.018a2.14,2.14,0,0,1,.494.405" transform="translate(-19.948 -5.999)" fill="#fff"/>
          <path id="Path_12" data-name="Path 12" d="M95.047,74.169a2.618,2.618,0,0,0-1.059-.3c-1.094,0-1.27,1.748-2.735,1.748a1.727,1.727,0,0,1-1.818-1.677,2.11,2.11,0,0,1,2.258-1.959,3.232,3.232,0,0,1,.6.053,4.111,4.111,0,0,1,1.8.829l.159.159a4.187,4.187,0,0,1,.794,1.147" transform="translate(-12.933 -10.409)" fill="#ffbd00"/>
          <path id="Path_13" data-name="Path 13" d="M138.864,78.389c-.141-.141-.812.37-1.358.724-3.83,2.718-7.095,4.64-7.5,4.871-1.712.988-4.483,1.712-9.106.529a.51.51,0,0,1-.159-.918,44.233,44.233,0,0,0,3.741-2.912c2.682-2.365,4.13-3.688,4.147-5.541a3.41,3.41,0,0,0-1.641-3.177,3.11,3.11,0,0,0-2.824.194.513.513,0,0,1-.706-.636c.741-2.329,1.517-4.694,2.258-7.024a.407.407,0,0,0,.035-.141,1.315,1.315,0,0,0-.935-1.306,1.24,1.24,0,0,0-1.305.424l-.106.158q-2.066,6.142-4.148,12.283a.372.372,0,0,1-.176.23c-1.641,1.217-3.6,2.665-5.806,4.358-1.641,1.236-3.283,2.436-4.924,3.671-.176.123-.352.246-.512.37-3.706,2.753-4.853,3.635-6.565,3.547A4.232,4.232,0,0,1,98.08,86.56a3.879,3.879,0,0,1-.211-3.494,4.868,4.868,0,0,1,.529-1.112.541.541,0,0,1,.282-.194,21.662,21.662,0,0,0,3.529-1.553c3.547-1.995,5.47-4.465,8.136-7.959,3.67-4.836,4.376-7.324,4.482-8.559a8.973,8.973,0,0,0,.017-1.571,3.475,3.475,0,0,0-.935-2.558c-1.517-1.042-4.412,1.305-6.159,3.106a7.946,7.946,0,0,0-.671.706A50.045,50.045,0,0,0,99.033,74c-1.252,2.047-2.294,3.812-3.035,5.1a.589.589,0,0,1-.247.212c-2.594,1.146-5.189,2.258-7.782,3.405-.989.423-1.959.865-2.948,1.288a2.118,2.118,0,0,1-2.294-.07,1.742,1.742,0,0,1-.476-1.429,3.076,3.076,0,0,1,.018-.406,5.173,5.173,0,0,1,1.553-3.212.311.311,0,0,0,.089-.123c.352-.653.688-1.306,1.041-1.959a.554.554,0,0,0-.194-.706c-.353-.194-.724-.388-1.077-.6a.522.522,0,0,0-.671.141c-.759,1.024-1.517,2.047-2.293,3.053a.092.092,0,0,1-.036.071A12.748,12.748,0,0,1,78.6,81.5a10.416,10.416,0,0,1-.918.847A13.255,13.255,0,0,1,73,84.865a.509.509,0,0,1-.636-.335,9.314,9.314,0,0,1-.494-2.382c0-.106-.018-.194-.018-.317-.124-2.418.688-3.477-.018-4.588a3.482,3.482,0,0,0-3.159-1.235,4.069,4.069,0,0,0-2.541,1.252.506.506,0,0,1-.864-.3A3.054,3.054,0,0,0,64.233,75,3.837,3.837,0,0,0,61,74.542c-2.453.565-3.954,2.877-4.218,2.665-.177-.141.671-1.111.37-1.606-.3-.476-1.553-.229-2.682.071a.649.649,0,0,0-.317.3L50.768,83.4c-.018.017-.018.035-.035.053l-.088.317-.336,1.094-.229.777s-.423,1.588.759,2.03a1.828,1.828,0,0,0,1.412.105.528.528,0,0,0,.229-.211c.335-.618.653-1.218.971-1.783.194-.353.388-.689.582-1.024.795-1.429,1.553-2.683,2.189-3.759A22.972,22.972,0,0,1,58.9,77.63c1.712-1.836,2.329-1.959,2.665-1.836.335.159.458.6.583.971a3.889,3.889,0,0,1-.335,2.347c-.282.865-.494,1.765-.707,2.629-.088.405-.176.776-.3,1.182-.282,1.094-.441,1.765-.106,2.382a1.494,1.494,0,0,0,.83.724c.211.07.812.194,1.853-.636,1.306-1.023,1.57-2.17,2.241-3.494a8.873,8.873,0,0,1,.812-1.358,9.237,9.237,0,0,1,1.253-1.377.516.516,0,0,1,.847.494,8.912,8.912,0,0,0-.141,2.347,9.189,9.189,0,0,0,.229,1.482c.3,1.112.654,2.523,1.871,3.212,1.677.953,3.9-.141,5.418-.865a11.456,11.456,0,0,0,2.558-1.712.522.522,0,0,1,.812.158,4.394,4.394,0,0,0,1.906,2.083c1.429.724,2.966.317,5.771-.777,1.677-.653,3.67-1.517,6.071-2.7h.088c.37-.177.759-.371,1.147-.565a.513.513,0,0,1,.741.547c0,.035-.017.053-.017.088A6.732,6.732,0,0,0,96.1,88.183a6.2,6.2,0,0,0,2.505,1.941,5.544,5.544,0,0,0,1.094.37.34.34,0,0,0,.124.018A7.681,7.681,0,0,0,103.357,90c.671-.282,1.341-.653,2.241-1.094,1.553-.777,2.506-1.588,5.471-4.253.37-.318.759-.671,1.182-1.059.583-.512,1.482-1.323,2.629-2.347a.507.507,0,0,1,.794.6,31.691,31.691,0,0,0-1.341,3.371c-.141.388-.229.741-.335,1.059a17.123,17.123,0,0,0-.512,2.965c-.053.37-.106.776-.159,1.252a1.043,1.043,0,0,0-.017.23c-.071.529-.106.988-.124,1.358,0,.706.106,1.147.441,1.394a1.715,1.715,0,0,0,1.465.035,2.864,2.864,0,0,0,1.358-1.712c.123-.335.264-.706.423-1.164.071-.177.124-.371.194-.565.124-.387.247-.829.388-1.288.141-.565.317-1.182.476-1.853a.522.522,0,0,1,.689-.353,16.338,16.338,0,0,0,6.071.971,4.806,4.806,0,0,0,.512-.035c.441-.018.865-.071,1.288-.124h.035a15.987,15.987,0,0,0,3.053-.812,17.755,17.755,0,0,0,5.259-3.088c2.418-2.047,4.306-4.836,4.024-5.1M106.392,68.348c.23-.353,3.3-3.688,4.112-4.659.053-.053.124-.141.212-.229.37-.494.971-1.165,1.341-1.624a.515.515,0,0,1,.865.106,3.03,3.03,0,0,1,.229,1.023c.212,2.118-5.347,8.841-5.77,9.336-.018.035-.036.035-.053.053-5.03,4.465-7.571,6.67-7.924,6.335-.37-.352.671-2.452,6.989-10.341m13.695,12.371c.353-1.165.689-2.329,1.024-3.494a.684.684,0,0,1,.105-.194A9.275,9.275,0,0,1,125.875,74c.017,0,.017,0,.017-.018a.515.515,0,0,1,.618.547,4.674,4.674,0,0,1-.318,1.5,6.819,6.819,0,0,1-2.612,2.965c-.689.583-1.588,1.341-2.647,2.259a.519.519,0,0,1-.847-.53" transform="translate(-7.231 -8.576)" fill="#ffbd00"/>
        </g>
      </g>
    </g>
  </g>
</svg>
