<svg xmlns="http://www.w3.org/2000/svg" width="36.559" height="37.891" viewBox="0 0 36.559 37.891">
  <g id="Group_323" data-name="Group 323" transform="translate(-9)">
    <path id="Path_171" data-name="Path 171" d="M84.459,209H82.11A1.11,1.11,0,0,0,81,210.114l.016,8.433a1.11,1.11,0,0,0,2.22,0v-2.56l1.223,0a3.491,3.491,0,1,0,0-6.982Zm0,4.761c-.286,0-.773,0-1.229,0,0-.473,0-.982,0-1.275,0-.251,0-.777,0-1.271h1.236a1.271,1.271,0,1,1,0,2.541Z" transform="translate(-66.672 -193.533)" fill="#ffbd00"/>
    <path id="Path_172" data-name="Path 172" d="M212.429,209H210.11a1.11,1.11,0,0,0-1.11,1.112s.017,8.159.017,8.188a1.11,1.11,0,0,0,1.11,1.106h0c.07,0,1.724-.007,2.385-.018,2.508-.044,4.329-2.225,4.329-5.185C216.845,211.091,215.07,209,212.429,209Zm.048,8.169c-.288.005-.782.009-1.244.012,0-.964-.009-4.959-.011-5.961h1.207c2.038,0,2.2,2.283,2.2,2.983C214.625,215.661,213.961,217.143,212.477,217.169Z" transform="translate(-185.199 -193.533)" fill="#ffbd00"/>
    <path id="Path_173" data-name="Path 173" d="M357.5,210.062a1.11,1.11,0,1,0,0-2.22H354.11a1.11,1.11,0,0,0-1.11,1.11v8.374a1.11,1.11,0,1,0,2.22,0V214.17h2.014a1.11,1.11,0,1,0,0-2.22H355.22v-1.888Z" transform="translate(-318.542 -192.461)" fill="#ffbd00"/>
    <path id="Path_174" data-name="Path 174" d="M42.228,10.731h-.814v-.317A5.529,5.529,0,0,0,39.892,6.6L35.281,1.732A5.574,5.574,0,0,0,31.253,0H16.475a3.334,3.334,0,0,0-3.33,3.33v7.4H12.33A3.334,3.334,0,0,0,9,14.061V27.382a3.334,3.334,0,0,0,3.33,3.33h.814V34.56a3.334,3.334,0,0,0,3.33,3.33h21.61a3.334,3.334,0,0,0,3.33-3.33V30.712h.814a3.334,3.334,0,0,0,3.33-3.33V14.061A3.334,3.334,0,0,0,42.228,10.731ZM15.364,3.33a1.111,1.111,0,0,1,1.11-1.11H31.253A3.344,3.344,0,0,1,33.67,3.259l4.611,4.864a3.317,3.317,0,0,1,.913,2.291v.317H15.364Zm23.83,31.23a1.111,1.111,0,0,1-1.11,1.11H16.475a1.111,1.111,0,0,1-1.11-1.11V30.712h23.83Zm4.144-7.179a1.111,1.111,0,0,1-1.11,1.11H12.33a1.111,1.111,0,0,1-1.11-1.11V14.061a1.111,1.111,0,0,1,1.11-1.11h29.9a1.111,1.111,0,0,1,1.11,1.11Z" fill="#ffbd00"/>
  </g>
</svg>
