<svg xmlns="http://www.w3.org/2000/svg" xmlns:xlink="http://www.w3.org/1999/xlink" width="1322.01" height="943.879" viewBox="0 0 1322.01 943.879">
  <defs>
    <clipPath id="clip-path">
      <rect id="Rectangle_99" data-name="Rectangle 99" width="1277.799" height="878.208" fill="none"/>
    </clipPath>
  </defs>
  <g id="Group_331" data-name="Group 331" transform="translate(1322.01 877.004) rotate(177)">
    <g id="Group_313" data-name="Group 313" transform="translate(0 0)" clip-path="url(#clip-path)">
      <path id="Path_159" data-name="Path 159" d="M1178.664,221.755c16.894-6.7,31.028,2.547,35.752,14.47,7.883,19.87-18,32.964-12.068,47.936,1.674,4.229,5.714,8.407,10.328,12.366a64.441,64.441,0,0,1-21.981-3.756l-3.363-1.194a55.216,55.216,0,0,1-22.49-19.23,44.245,44.245,0,0,1-4.1-7.766c-6.543-16.5.422-35.883,17.927-42.826m-7.111,38.263a33.1,33.1,0,0,0,2.729,5.874,38.336,38.336,0,0,0,5.947,7.65,37.4,37.4,0,0,1-4.294-19.863c.408-5.951,4.52-15.172,4.52-15.172s6.349-8.618,7.643-9.815c-.582.138-1.172.313-1.776.517-13.123,4.447-18.96,18.436-14.768,30.81" transform="matrix(-0.407, -0.914, 0.914, -0.407, 391.704, 1712.474)" fill="#072d5f"/>
      <path id="Path_161" data-name="Path 161" d="M78.649,369.16c46.626,15.685,98.965-35.308,59.916-83.6-24.878-30.759-19.346-53.678-6.07-65.149.2-.175.408-.349.611-.517,15.918-13.108,42.12-10.226,41.516,14.564-1.128,46.145,46.014,63.133,73.716,34.427s83.28-63.206,146.4,8.61S533,298.516,477.69,249.561,511.913,149.1,538.159,201.8v.007c35.613,71.5,52.841,76.962,62.383,74.138,19.142-5.677,6.15-51.437,32.105-71.663,18.858-14.688,48.314-1.339,72.573,2.227,171.888,25.242,14.36-148.975,64.72-197.18,13.2-12.635,40.548-12.14,52.951-.3,15.219,14.535,10.161,48.358,6.485,72.952-2.023,13.567-4.243,18.866-2.125,28.779,2.991,13.938,13.472,31.923,30.933,36.661,15.066,4.1,28.335-3.559,43.969-12.584,21.668-12.5,54.668-52.3,106.855-45.985a.688.688,0,0,1,.211.051c11.522,2.839,22.33,8.276,29.936,17.25.51.6,1,1.215,1.478,1.841,59.734,78.731,7.155,162.928-91.927,178.314-98.4,15.277-54.5,144.572,13.88,74.83s139.448-33.765,121.3,24.7,23.626,99.292,72.6,76.431c68.97-32.2,117.19,8.174,121.062,49.479,3.617,38.59-33.059,78.25-84.816,52.972-44.195-21.581-102.7,22.207-70.23,75.143,18.968,30.926,13.436,52,1.084,62.733l-.793.67c-.036.029-.073.058-.1.08-17.323,14-46.611,8.61-42.557-17.476,7.089-45.614-37.455-68.563-68.643-43.678S920.75,694.091,867.45,614.7s-134.382-38.736-85.878,16.966-46.939,95.18-66.139,39.529c-13.982-40.512-81.54-24.834-117.277-13.3-18.283,5.9-34.842,16.595-46.888,31.574-7.766,9.666-13.793,21.151-14.127,34.485-.4,15.845,7.584,20.409,19.419,46.589,9.724,21.537,32.389,71.707,13.218,94.62-11.726,14.011-38.641,17.279-52.47,7.147-16.973-12.446-16.34-46.64-15.874-71.5.255-13.713,1.769-19.259-1.616-28.815-4.76-13.429-17.483-29.907-35.417-32.353-15.474-2.111-28.9,5.728-41.968,18.167-18.32,17.446-14.309,19.659-33.6,35.242-23.407,18.909-48.482,25.984-66.4,24.193a59.049,59.049,0,0,1-37.3-18.509q-2.4-2.6-4.607-5.226l-.349-.415c-57.325-68.8-15.59-152.585,76.489-179.457,95.588-27.884,35.322-150.423-23.451-72.406S199.3,592.768,209.734,532.452s-36.276-95.4-81.882-66.394C63.627,506.912,10.6,473.111,1.411,432.672c-8.589-37.8,22.651-81.875,77.239-63.512m921.37-131.288c30.853-6.4,47.929-36.348,41.895-65.44a74.235,74.235,0,0,0-4.527-14.011,87.061,87.061,0,0,0-11.3-18.917,84.85,84.85,0,0,1,4.163,46.022c-6.107,31.625-28.772,48.969-34.376,53.016,1.339-.153,2.729-.378,4.141-.67m230.29,319.378c21.217-4.236,33.088-24.71,29.092-44.719a51.007,51.007,0,0,0-3.042-9.644,59.882,59.882,0,0,0-7.657-13.043,58.177,58.177,0,0,1,2.635,31.617c-4.352,21.69-20,33.481-23.873,36.232.924-.095,1.885-.247,2.846-.444m-318.1,54.872c11.4,22.519,38.124,29.47,59.363,18.72a58.4,58.4,0,0,0,9.884-6.427,69.135,69.135,0,0,0,12.271-12.686,67.861,67.861,0,0,1-34.718,12.839c-25.737,1.885-43.889-12.024-48.183-15.51.4,1.012.866,2.038,1.383,3.064M744.27,679.04a34.732,34.732,0,0,0,6.951,1.245,40.963,40.963,0,0,0,10.547-.5,40.655,40.655,0,0,1-20.4-8.625c-12-9.724-14.215-23.226-14.666-26.508-.233.6-.458,1.237-.648,1.9-4.258,14.5,4.549,28.473,18.218,32.491M509.358,211.2c13.152,8.079,17.1,21.18,17.963,24.383.16-.626.291-1.288.4-1.972,2.344-14.921-8.2-27.644-22.272-29.856a36.769,36.769,0,0,0-7.046-.342,42.032,42.032,0,0,0-10.394,1.871,40.713,40.713,0,0,1,21.348,5.917M281.165,277.663a67.768,67.768,0,0,1,17.759-6.434c25.271-5.2,45.068,6.245,49.784,9.142-.524-.946-1.121-1.907-1.769-2.853-14.222-20.86-41.618-24.288-61.284-10.889a60.845,60.845,0,0,0-8.974,7.657,70.288,70.288,0,0,0-10.525,14.171,68.585,68.585,0,0,1,15.008-10.794" transform="translate(0 -0.001)" fill="#072d5f" fill-rule="evenodd"/>
      <path id="Path_162" data-name="Path 162" d="M322.435,290.7c1.339-.153,2.729-.379,4.141-.67,30.853-6.4,47.929-36.348,41.895-65.44a74.223,74.223,0,0,0-4.527-14.011,87.061,87.061,0,0,0-11.3-18.917,84.851,84.851,0,0,1,4.163,46.022c-6.107,31.625-28.772,48.969-34.376,53.016" transform="translate(673.443 -52.164)" fill="#fff" fill-rule="evenodd"/>
      <path id="Path_163" data-name="Path 163" d="M24.222,740.857c.924-.095,1.885-.247,2.846-.444,21.217-4.236,33.088-24.71,29.092-44.719a51.007,51.007,0,0,0-3.042-9.644,59.887,59.887,0,0,0-7.657-13.043A58.178,58.178,0,0,1,48.1,704.625c-4.353,21.69-20,33.481-23.873,36.232" transform="translate(1203.24 -183.164)" fill="#fff" fill-rule="evenodd"/>
      <path id="Path_164" data-name="Path 164" d="M390.288,836.8c.4,1.012.866,2.038,1.383,3.064,11.4,22.519,38.124,29.47,59.363,18.72a58.394,58.394,0,0,0,9.884-6.427,69.131,69.131,0,0,0,12.271-12.686,67.865,67.865,0,0,1-34.718,12.839c-25.737,1.885-43.889-12.024-48.183-15.51" transform="translate(520.541 -227.74)" fill="#fff" fill-rule="evenodd"/>
      <path id="Path_165" data-name="Path 165" d="M728.285,920.088a34.732,34.732,0,0,0,6.951,1.245,40.964,40.964,0,0,0,10.547-.5,40.655,40.655,0,0,1-20.4-8.625c-12-9.724-14.215-23.225-14.666-26.508-.233.6-.459,1.237-.648,1.9-4.258,14.5,4.549,28.473,18.218,32.491" transform="translate(15.984 -241.049)" fill="#fff" fill-rule="evenodd"/>
      <path id="Path_166" data-name="Path 166" d="M1030.1,281.332a40.713,40.713,0,0,1,21.348,5.917c13.152,8.079,17.1,21.18,17.963,24.383.16-.626.291-1.288.4-1.972,2.344-14.921-8.2-27.644-22.272-29.856a36.77,36.77,0,0,0-7.046-.342,42.031,42.031,0,0,0-10.393,1.871" transform="translate(-542.088 -76.047)" fill="#fff" fill-rule="evenodd"/>
      <path id="Path_167" data-name="Path 167" d="M1276.5,385.177a68.582,68.582,0,0,1,15.008-10.794,67.768,67.768,0,0,1,17.76-6.434c25.271-5.2,45.068,6.245,49.784,9.142-.524-.946-1.121-1.907-1.768-2.853-14.222-20.86-41.618-24.288-61.285-10.889a60.866,60.866,0,0,0-8.974,7.657,70.307,70.307,0,0,0-10.524,14.171" transform="translate(-1010.341 -96.721)" fill="#fff" fill-rule="evenodd"/>
      <path id="Path_168" data-name="Path 168" d="M573.406,907.06c-1.121-4.411-4.578-9.076-8.64-13.6a64.671,64.671,0,0,1,21.311,6.572l3.181,1.623a55.134,55.134,0,0,1,19.812,21.974,43.988,43.988,0,0,1,3.064,8.239c4.353,17.206-5.066,35.526-23.32,40.141-17.614,4.454-30.438-6.543-33.583-18.968-5.24-20.729,22.119-30.366,18.174-45.978m8.778,56.575v-.007c13.589-2.715,21.195-15.838,18.633-28.648a32.489,32.489,0,0,0-1.943-6.172,38.545,38.545,0,0,0-4.906-8.356,37.322,37.322,0,0,1,1.681,20.256c-2.788,13.895-12.81,21.442-15.285,23.211.59-.073,1.2-.16,1.82-.284" transform="translate(260.977 -243.161)" fill="#072d5f"/>
      <path id="Path_169" data-name="Path 169" d="M572.7,973.73v-.007c13.589-2.715,21.195-15.838,18.633-28.648a32.494,32.494,0,0,0-1.943-6.172,38.552,38.552,0,0,0-4.906-8.356,37.323,37.323,0,0,1,1.681,20.256c-2.788,13.895-12.81,21.442-15.285,23.211.59-.073,1.2-.16,1.82-.284" transform="translate(270.461 -253.255)" fill="#fff"/>
      <path id="Path_181" data-name="Path 181" d="M1276.5,373.365a39.329,39.329,0,0,1,8.578-6.514,37.438,37.438,0,0,1,10.151-3.883c14.444-3.141,25.76,3.769,28.456,5.517-.3-.571-.641-1.151-1.011-1.722-8.129-12.589-23.788-14.658-35.029-6.571a35.363,35.363,0,0,0-5.13,4.621,42.35,42.35,0,0,0-6.015,8.552" transform="translate(1478.272 713.948) rotate(172)" fill="#fff" fill-rule="evenodd"/>
      <path id="Path_182" data-name="Path 182" d="M1276.5,373.365a61.746,61.746,0,0,1,12.707-6.514,73.539,73.539,0,0,1,15.036-3.883,79.055,79.055,0,0,1,42.15,5.517,22.062,22.062,0,0,0-1.5-1.722c-12.041-12.589-35.237-14.658-51.887-6.571a50.986,50.986,0,0,0-7.6,4.621,47.117,47.117,0,0,0-8.91,8.552" transform="translate(1614.053 767.279) rotate(173)" fill="#fff" fill-rule="evenodd"/>
    </g>
  </g>
</svg>
